:version 1.10
:name ASF
:units
  mass 1
  length 1
  angle deg
:documentation
  ASF file generated by Kaydara
:root
  axis xyz
  order  tx ty tz rx ry rz
  position 0 0 0
  orientation 0 0 0
:bonedata
  begin
    id 1
    name RightUpLegDummy
    direction -1 2.30186e-007 8.31532e-007
    length 4.46685
    axis 0 0 0 xyz
  end
  begin
    id 2
    name RightUpLeg
    direction -2.30187e-007 -1 1.24343e-010
    length 16.4045
    axis -3.49089 -0.000906625 0.000286804 xyz
    dof rx ry rz
  end
  begin
    id 3
    name RightLeg
    direction -2.30181e-007 -1 -4.17157e-009
    length 17.5097
    axis 3.68512 0.0193738 -0.131023 xyz
    dof rx ry rz
  end
  begin
    id 4
    name RightFoot
    direction 8.31421e-007 -4.51202e-011 1
    length 6.49508
    axis 4.81691e-005 -0.120479 -0.188788 xyz
    dof rx ry rz
  end
  begin
    id 5
    name RightToes
    direction 0.00124746 -0.014064 0.9999
    length 3.85082
    axis 0.000481921 0.542163 -0.142578 xyz
    dof rx ry rz
  end
  begin
    id 6
    name SpineDummy
    direction 0.0717043 0.9409 -0.331007
    length 10.0032
    axis 0 0 0 xyz
  end
  begin
    id 7
    name Spine
    direction 2.30186e-007 1 4.58806e-011
    length 9.84055
    axis -0.001389 0.000121418 2.40972e-006 xyz
    dof rx ry rz
  end
  begin
    id 8
    name Spine1
    direction 0 0 0
    length 0
    axis -0.001389 0.000121451 1.30017e-006 xyz
    dof rx ry rz
  end
  begin
    id 9
    name HEadDummy
    direction -0.00347485 0.950688 -0.310128
    length 8.00997
    axis -0.001389 0.000121451 1.30017e-006 xyz
  end
  begin
    id 10
    name HEad
    direction -0.0222688 0.980941 0.193023
    length 5.12695
    axis -0.001389 0.000121451 1.30017e-006 xyz
    dof rx ry rz
  end
  begin
    id 11
    name LeftShoulder1Dummy
    direction 0.988871 0.146793 -0.0242004
    length 3.5792
    axis -0.001389 0.000121451 1.30017e-006 xyz
  end
  begin
    id 12
    name LeftShoulder1
    direction 0.993832 0.108932 0.020779
    length 4.16823
    axis -0.001389 0.000121451 1.30017e-006 xyz
    dof rx ry rz
  end
  begin
    id 13
    name LeftArm
    direction 1 3.44807e-006 -8.31404e-007
    length 9.91437
    axis -23.1894 0.134784 0.967509 xyz
    dof rx ry rz
  end
  begin
    id 14
    name LeftForeArm
    direction 1 3.44842e-006 -8.31581e-007
    length 9.08575
    axis -9.91835 -0.06569 -0.177793 xyz
    dof rx ry rz
  end
  begin
    id 15
    name LeftHand
    direction 0.992938 -0.0411636 0.11126
    length 5.32135
    axis -0.00960232 -0.00340091 0.185173 xyz
    dof rx ry rz
  end
  begin
    id 16
    name RightShoulderDummy
    direction -0.988871 0.146793 -0.0241962
    length 3.5792
    axis -0.001389 0.000121451 1.30017e-006 xyz
  end
  begin
    id 17
    name RightShoulder
    direction -0.993832 0.108933 0.0207785
    length 4.16823
    axis 0.215806 0.000203643 -0.0068026 xyz
    dof rx ry rz
  end
  begin
    id 18
    name RightArm
    direction -1 3.90912e-006 8.31284e-007
    length 9.91437
    axis -23.2009 -0.134239 -0.964101 xyz
    dof rx ry rz
  end
  begin
    id 19
    name RightForeArm
    direction -1 3.90882e-006 8.31502e-007
    length 9.08575
    axis -9.92322 0.0658061 0.178867 xyz
    dof rx ry rz
  end
  begin
    id 20
    name RightHand
    direction -0.992843 -0.0414603 0.112003
    length 5.28593
    axis -0.00960638 0.00330671 -0.185228 xyz
    dof rx ry rz
  end
  begin
    id 21
    name LeftUpLegDummy
    direction 1 -2.30186e-007 -8.31532e-007
    length 4.46685
    axis 0 0 0 xyz
  end
  begin
    id 22
    name LeftUpLeg
    direction -2.30187e-007 -1 6.00931e-010
    length 16.4045
    axis -3.48766 0.00143442 -0.000524262 xyz
    dof rx ry rz
  end
  begin
    id 23
    name LeftLeg
    direction -2.30187e-007 -1 1.6669e-009
    length 17.5097
    axis 3.68178 -0.00654042 -0.000285133 xyz
    dof rx ry rz
  end
  begin
    id 24
    name LeftFoot
    direction 8.31532e-007 -4.54478e-011 1
    length 6.49508
    axis 1.87233e-006 4.66016e-005 -8.6538e-006 xyz
    dof rx ry rz
  end
  begin
    id 25
    name LeftToes
    direction 0.00818058 -0.00485161 0.999955
    length 3.85048
    axis 1.06247e-005 4.65869e-005 -8.65513e-006 xyz
    dof rx ry rz
  end
:hierarchy
  begin
    root RightUpLegDummy SpineDummy LeftUpLegDummy
    RightUpLegDummy RightUpLeg
    RightUpLeg RightLeg
    RightLeg RightFoot
    RightFoot RightToes
    SpineDummy Spine
    Spine Spine1
    Spine1 HEadDummy LeftShoulder1Dummy RightShoulderDummy
    HEadDummy HEad
    LeftShoulder1Dummy LeftShoulder1
    LeftShoulder1 LeftArm
    LeftArm LeftForeArm
    LeftForeArm LeftHand
    RightShoulderDummy RightShoulder
    RightShoulder RightArm
    RightArm RightForeArm
    RightForeArm RightHand
    LeftUpLegDummy LeftUpLeg
    LeftUpLeg LeftLeg
    LeftLeg LeftFoot
    LeftFoot LeftToes
  end

:SAMPLES-PER-SECOND 30
:FULLY-SPECIFIED
:DEGREES
95
root  11.7341 30.2348 1.38698 -164.562 44.203 178.719
RightUpLeg  -56.1233 -12.9965 2.31755
RightLeg  44.3968 -3.48903 -3.0284
RightFoot  3.43356 0.0254438 -0.471245
RightToes  -25.7326 -0.115666 -0.22124
Spine  14.7539 -1.70347 3.69063
Spine1  25.0705 -4.6892 3.0352
HEad  21.7268 -14.5341 22.7798
LeftShoulder1  0 -2.42657e-020 -4.95415e-022
LeftArm  -22.6732 -23.8988 -93.3008
LeftForeArm  50.2796 -17.0974 -3.07816
LeftHand  0.456644 -9.61644 -5.79876
RightShoulder  0 2.42657e-020 1.07489e-018
RightArm  -28.9468 31.1702 91.5402
RightForeArm  43.1003 17.2437 3.11875
RightHand  -0.916334 21.3609 -4.48715
LeftUpLeg  -20.1892 21.0618 11.2247
LeftLeg  50.373 8.786 9.19677
LeftFoot  -8.30787 -0.22003 -3.0289
LeftToes  -13.4532 2.37847e-007 4.89147e-008
96
root  12.2452 30.2164 1.36591 -163.948 45.2604 178.115
RightUpLeg  -57.3962 -11.8556 2.36157
RightLeg  45.8456 -3.44177 -3.14563
RightFoot  2.24283 0.0168786 -0.484539
RightToes  -25.3368 -0.113163 -0.218286
Spine  16.3344 -1.70817 3.88552
Spine1  27.4275 -4.96352 3.48844
HEad  20.6625 -14.216 23.4569
LeftShoulder1  0 -2.42657e-020 -4.95415e-022
LeftArm  -21.6467 -28.5474 -93.7014
LeftForeArm  50.6054 -16.2809 -2.92091
LeftHand  0.40599 -9.29531 -5.36481
RightShoulder  0 2.42657e-020 1.07489e-018
RightArm  -35.3875 36.4624 91.068
RightForeArm  45.0889 15.1021 2.70696
RightHand  -0.982923 20.6805 -5.01485
LeftUpLeg  -26.1124 17.3453 8.3184
LeftLeg  56.1715 5.01962 6.49375
LeftFoot  -10.659 -0.252327 -2.70437
LeftToes  -14.2556 2.37847e-007 4.89147e-008
97
root  12.6894 30.2033 1.31418 -163.788 46.7829 177.118
RightUpLeg  -58.4877 -10.7039 2.14699
RightLeg  46.9804 -3.20938 -3.0565
RightFoot  1.10577 0.00835435 -0.487862
RightToes  -24.1091 -0.10553 -0.209011
Spine  18.0881 -1.54732 3.84743
Spine1  29.9844 -4.91186 3.81774
HEad  19.5269 -14.2061 23.9543
LeftShoulder1  0 -2.42657e-020 -4.95415e-022
LeftArm  -20.8444 -33.7027 -94.3022
LeftForeArm  50.6589 -15.2433 -2.72366
LeftHand  0.357397 -9.17266 -4.82667
RightShoulder  0 2.42657e-020 1.07489e-018
RightArm  -40.6114 41.6899 89.899
RightForeArm  46.8628 13.2203 2.35205
RightHand  -1.16605 20.2667 -6.14924
LeftUpLeg  -31.7894 13.9911 5.09104
LeftLeg  60.8099 3.63382 5.59061
LeftFoot  -12.6279 -0.288792 -2.60957
LeftToes  -14.1804 2.37847e-007 4.89147e-008
98
root  13.0629 30.1598 1.26771 -163.423 48.3883 175.902
RightUpLeg  -60.0897 -9.09475 1.49743
RightLeg  48.2188 -3.26431 -3.24676
RightFoot  0.185137 0.00140884 -0.492587
RightToes  -23.6657 -0.102822 -0.205622
Spine  19.5801 -1.34881 3.60666
Spine1  31.9446 -4.72909 4.02969
HEad  19.0266 -14.4157 24.178
LeftShoulder1  0 -2.42657e-020 -4.95415e-022
LeftArm  -20.8775 -38.3572 -94.9826
LeftForeArm  50.828 -14.5156 -2.58633
LeftHand  0.332432 -8.93111 -4.62825
RightShoulder  0 2.42657e-020 1.07489e-018
RightArm  -45.0901 46.2449 88.3958
RightForeArm  48.6729 11.5539 2.04204
RightHand  -1.22894 19.9188 -6.62233
LeftUpLeg  -37.9897 10.6306 2.05986
LeftLeg  64.0778 3.3925 5.93378
LeftFoot  -14.8134 -0.365079 -2.80784
LeftToes  -12.478 2.37847e-007 4.89147e-008
99
root  13.4156 30.0766 1.1953 -163.052 49.8948 174.697
RightUpLeg  -62.06 -8.57165 1.41203
RightLeg  49.8648 -2.56391 -2.71421
RightFoot  -0.920949 -0.00681415 -0.470642
RightToes  -22.919 -0.0983216 -0.199867
Spine  21.1927 -1.21878 3.32331
Spine1  34.1261 -4.56789 4.19977
HEad  18.0925 -14.3026 23.9918
LeftShoulder1  0 -2.42657e-020 -4.95415e-022
LeftArm  -20.036 -43.1561 -95.4761
LeftForeArm  49.163 -14.3032 -2.54934
LeftHand  0.321701 -8.51822 -4.69143
RightShoulder  0 2.42657e-020 1.07489e-018
RightArm  -48.5539 50.807 86.7173
RightForeArm  49.7492 10.4345 1.83615
RightHand  -1.18278 19.5999 -6.47178
LeftUpLeg  -44.0887 7.37165 -0.178111
LeftLeg  65.6433 3.37173 6.28886
LeftFoot  -16.962 -0.446971 -2.99689
LeftToes  -11.2469 2.37847e-007 4.89147e-008
100
root  13.7499 29.916 1.11999 -162.428 51.5047 173.778
RightUpLeg  -64.3419 -8.23701 1.67414
RightLeg  51.8625 -1.56278 -1.79781
RightFoot  -2.22776 -0.0162629 -0.459008
RightToes  -21.4 -0.0894 -0.187982
Spine  22.7188 -1.10165 2.94941
Spine1  36.1368 -4.30905 4.24244
HEad  18.2431 -14.1033 23.3783
LeftShoulder1  0 -2.42657e-020 -4.95415e-022
LeftArm  -18.6575 -47.7246 -95.5343
LeftForeArm  47.0929 -14.2627 -2.54508
LeftHand  0.291739 -8.21996 -4.43204
RightShoulder  0 2.42657e-020 1.07489e-018
RightArm  -50.5606 54.9886 85.1855
RightForeArm  49.8614 9.59175 1.68335
RightHand  -1.10941 19.4887 -6.08553
LeftUpLeg  -50.0332 4.491 -1.27283
LeftLeg  65.715 2.92134 5.4697
LeftFoot  -18.2291 -0.433635 -2.7024
LeftToes  -11.7432 2.37847e-007 4.89147e-008
101
root  14.0343 29.7067 1.05626 -161.116 52.515 173.323
RightUpLeg  -67.0095 -8.06504 2.17283
RightLeg  54.0253 -0.881384 -1.12306
RightFoot  -3.5994 -0.026096 -0.45305
RightToes  -20.4472 -0.0839658 -0.180408
Spine  23.9146 -1.20549 2.79166
Spine1  37.5944 -4.43533 4.55005
HEad  18.9225 -13.7562 22.2708
LeftShoulder1  0 -2.42657e-020 -4.95415e-022
LeftArm  -17.8313 -51.8842 -95.5763
LeftForeArm  45.6014 -14.2138 -2.53817
LeftHand  0.271823 -7.97514 -4.27156
RightShoulder  0 2.42657e-020 1.07489e-018
RightArm  -52.2014 58.8646 83.8769
RightForeArm  50.7993 8.71406 1.52365
RightHand  -1.05335 19.406 -5.7865
LeftUpLeg  -56.1617 1.86964 -1.22456
LeftLeg  64.6135 2.02901 3.63193
LeftFoot  -18.3522 -0.315983 -1.95593
LeftToes  -14.5656 2.37847e-007 4.89147e-008
102
root  14.3193 29.4586 0.967076 -159.913 52.9908 173.076
RightUpLeg  -69.3997 -7.93357 2.56025
RightLeg  56.4397 -0.587715 -0.843083
RightFoot  -5.0612 -0.0353137 -0.421519
RightToes  -19.7154 -0.0798781 -0.17453
Spine  25.2111 -1.49968 2.84632
Spine1  39.239 -4.86009 4.91268
HEad  18.8183 -13.3068 21.2652
LeftShoulder1  0 -2.42657e-020 -4.95415e-022
LeftArm  -17.7449 -56.0525 -95.5663
LeftForeArm  44.8356 -14.0733 -2.513
LeftHand  0.277606 -7.95226 -4.366
RightShoulder  0 2.42657e-020 1.07489e-018
RightArm  -53.6859 62.7276 82.7501
RightForeArm  52.235 7.91126 1.37722
RightHand  -1.00689 19.5635 -5.46724
LeftUpLeg  -61.7133 0.0318326 -0.730999
LeftLeg  63.1312 1.098 1.84766
LeftFoot  -17.3409 -0.187544 -1.22981
LeftToes  -18.3986 2.37847e-007 4.89147e-008
103
root  14.5558 29.1731 0.866782 -158.529 53.5699 172.817
RightUpLeg  -72.1451 -7.68402 2.82955
RightLeg  59.0208 -0.300743 -0.517519
RightFoot  -6.45999 -0.0436624 -0.396175
RightToes  -19.0297 -0.0761162 -0.168976
Spine  26.3181 -1.77736 2.90275
Spine1  40.6603 -5.22787 5.19472
HEad  18.5776 -12.9134 20.4779
LeftShoulder1  0 -2.42657e-020 -4.95415e-022
LeftArm  -17.4082 -60.0032 -95.3427
LeftForeArm  43.4931 -14.0745 -2.51508
LeftHand  0.294573 -7.72411 -4.73563
RightShoulder  0 2.42657e-020 1.07489e-018
RightArm  -54.0007 66.2473 81.7944
RightForeArm  52.2428 7.63849 1.32846
RightHand  -0.915228 19.6954 -4.90037
LeftUpLeg  -67.1065 -0.86352 -0.379459
LeftLeg  61.7918 0.102339 0.153217
LeftFoot  -15.4448 -0.0826788 -0.609712
LeftToes  -23.783 2.37847e-007 4.89147e-008
